PathFileType	4	(X/Y/Z)	C:\Users\WrightLab\Desktop\Jo\P4V116.trc
DataRate	CameraRate	NumFrames	NumMarkers	Units	OrigDataRate	OrigDataStartFrame	OrigNumFrames
100.00	100.00	       24	19	mm	100.00	394	       525
Frame#	Time	Headset_Front			Headset_Back			Headset_Left			Headset_Right			Left_Shoulder			Right_Shoulder			Sternum			C7			Left Elbow			Right Elbow			Left Wrist			Right Wrist			Left ASIS			Right ASIS			S2			Left Knee			Right Knee			Left Ankle			Right Ankle			
		X1	Y1	Z1	X2	Y2	Z2	X3	Y3	Z3	X4	Y4	Z4	X5	Y5	Z5	X6	Y6	Z6	X7	Y7	Z7	X8	Y8	Z8	X9	Y9	Z9	X10	Y10	Z10	X11	Y11	Z11	X12	Y12	Z12	X13	Y13	Z13	X14	Y14	Z14	X15	Y15	Z15	X16	Y16	Z16	X17	Y17	Z17	X18	Y18	Z18	X19	Y19	Z19	

394	3.930	-69.58943	1739.37524	2210.34814	-137.68695	1767.17883	2079.95581							122.03761	1575.17969	2092.00757	-136.38658	1575.01978	1926.94348	-57.59230	1513.85913	2105.63354				276.32645	1241.59558	2164.39111	-261.86078	1226.78650	1854.04114	196.07361	983.96735	2323.80884	-351.70795	976.78064	2006.47314	72.16197	1082.08862	2180.58521	-198.26205	1075.80432	1986.78186				50.10266	598.82532	2232.60156	-251.63609	605.93567	2032.26538	68.84622	105.12533	2180.55151	6.44797	233.85794	1800.59094	
395	3.940	-72.01466	1740.11743	2216.43677	-139.96167	1767.72485	2086.14111							119.27901	1575.99341	2097.98486				-59.52993	1514.31543	2112.04077				273.51669	1242.45264	2173.86182	-262.30286	1228.01831	1859.03052	191.20016	986.12128	2332.61108	-353.92825	979.25378	2011.56738	71.80146	1082.34436	2184.30151	-199.04442	1076.86011	1990.77551				50.22467	599.77557	2234.59766	-253.86894	608.35358	2039.80872	68.84622	105.12533	2180.55151	0.58617	223.59688	1820.07043	
396	3.950	-74.39472	1741.03784	2222.82666	-142.12848	1767.65344	2092.81812							117.01664	1576.77002	2106.07251				-61.32796	1514.49927	2116.99707				270.56531	1244.21863	2183.23950	-262.58963	1228.72693	1861.93762	186.03909	988.48743	2342.02515	-355.97781	981.44867	2017.00830	70.67749	1082.93823	2189.47607	-199.66150	1078.18335	1994.28674				50.80249	601.14838	2238.38892	-255.72498	610.65222	2047.15527	68.84622	105.12533	2180.55151	-6.03035	213.25304	1841.26538	
397	3.960	-77.27136	1741.84045	2229.53320	-144.95441	1769.02942	2099.29858							114.00517	1577.80139	2112.60571				-64.26866	1514.89844	2123.04102				267.44193	1245.39636	2192.75903	-262.65973	1229.14307	1866.63635	181.23318	990.22919	2351.36792	-357.80502	983.96686	2023.03784	70.21047	1082.39209	2191.92334	-200.01010	1079.23987	1997.55786				52.13521	600.50916	2238.88013	-256.70889	611.94238	2050.18774	68.84622	105.12533	2180.55151	-13.18856	204.05098	1855.62524	
398	3.970	-79.49609	1742.12512	2235.08862	-147.15710	1770.32202	2104.62939							111.66956	1579.07373	2119.26050	85.95685	1765.45728	2107.71777	-66.44182	1514.66736	2128.16187				264.48489	1246.29883	2201.05347				176.11900	991.17499	2359.48291	-359.12170	985.54785	2027.79077	68.92947	1082.96082	2195.97607	-200.50314	1079.93872	2001.27527				52.74105	600.97186	2240.13013	-257.32559	612.78778	2056.90796	68.84622	105.12533	2180.55151	-20.95705	192.71095	1877.37329	
399	3.980	-82.16704	1742.81079	2241.01123	-149.47110	1770.90894	2110.47705							109.38831	1579.65479	2126.71753	83.35178	1765.81018	2113.62158	-68.65464	1515.55066	2133.70801				261.04807	1247.64673	2211.49829				171.08662	993.17920	2368.60229	-360.94806	987.34637	2032.12378	68.42500	1083.25549	2199.60303	-201.34927	1080.70801	2004.72827				53.42731	599.02026	2238.91895	-257.44748	613.92389	2059.24658	68.63351	104.93479	2180.99854	-29.22798	182.76610	1893.90039	
400	3.990	-84.88440	1743.65686	2246.98022	-151.54437	1770.81519	2116.29639							106.59738	1579.90015	2131.34546	80.86511	1766.34326	2119.62769	-70.89005	1516.09363	2139.31323				257.40704	1248.14233	2218.85815				165.60876	993.85437	2376.18579	-362.69458	988.05835	2036.14307	66.92809	1083.63892	2203.70898	-202.45071	1081.62000	2007.70020				53.36196	599.79523	2241.17529	-257.28748	615.40839	2061.96875	68.68556	104.86402	2180.92456	-37.80809	172.83942	1912.80786	
401	4.000	-87.27108	1743.92957	2252.27197	-154.34467	1771.84106	2121.81519							104.91389	1580.43079	2136.58984	78.31609	1767.16711	2125.81201	-72.93263	1515.75769	2143.71143				253.72591	1248.99072	2227.95142				161.14064	995.26312	2385.86011	-364.52643	989.97681	2040.86633	66.00684	1083.30725	2206.06396	-203.61211	1081.99292	2010.66980				53.14449	599.44464	2241.78589	-256.35193	616.09985	2067.39941	69.05168	104.45960	2181.16675	-46.72115	162.88739	1930.37805	
402	4.010	-89.60553	1744.64001	2257.03418	-156.78006	1772.07031	2126.95361							102.34438	1581.37280	2143.67456	76.43423	1767.79761	2130.39673	-75.13990	1516.14893	2147.54077				250.14816	1249.99475	2237.05225				155.07959	994.87939	2392.29541	-365.58209	991.59717	2045.72754	64.48504	1083.63672	2209.62939	-204.57515	1082.68506	2014.07056				53.68926	600.06042	2243.38867	-255.42700	615.96521	2070.31860	69.00893	104.41908	2181.17163	-55.20628	153.49538	1947.98694	
403	4.020	-92.03312	1744.72253	2262.10254	-158.85141	1772.27954	2131.23730							100.38969	1581.97131	2147.96436	74.03883	1768.12427	2135.45996	-77.18533	1516.19250	2152.19556				245.51558	1250.05371	2244.73438				149.14482	995.56134	2400.71045	-366.55548	992.86084	2050.54077	63.50193	1083.66992	2212.38110	-264.67215	1232.07361	1890.39160				53.99711	598.06628	2242.31274	-254.07167	615.69653	2073.23608	69.10117	104.46461	2181.13770	-63.95784	145.56557	1965.46619	
404	4.030	-94.66055	1744.82910	2266.70630	-161.31093	1772.72583	2136.17139							98.15554	1581.22864	2151.86353	71.73969	1769.09009	2140.30347	-78.84644	1516.28687	2155.33765				241.15024	1250.60999	2253.78516				143.63235	995.87042	2407.71655	-367.62216	994.13348	2054.21021	61.88672	1084.05273	2216.46338	-206.47060	1084.13000	2020.57507				53.91314	597.88495	2242.68628	-253.20685	616.60126	2075.23022	69.27422	104.33635	2181.18140	-72.47244	139.66541	1979.66321	
405	4.040	-97.44276	1745.46545	2271.42969	-163.67146	1773.29395	2140.27148							95.77707	1582.07813	2156.90234	69.51311	1769.19312	2144.99072	-81.09605	1516.56555	2160.25854				236.72757	1250.81567	2261.41846				137.82489	996.18549	2414.98755	-369.16620	994.48547	2058.23853	61.08884	1084.02161	2219.02197	-266.23251	1232.71484	1897.38257	-207.58192	1084.51050	2022.83862	53.88973	597.72742	2242.99316	-251.31006	616.12726	2077.27808	69.25175	104.29959	2181.17505	-79.98283	130.98201	1997.54102	
406	4.050	-99.51833	1745.21704	2274.77173	-165.84131	1772.76416	2144.46289							93.85844	1582.60327	2161.99854	67.36453	1769.89771	2149.09302	-83.05423	1517.25281	2164.33716				232.34322	1251.56177	2269.41504				132.00502	996.05554	2422.06592	-369.77090	995.07214	2062.03613	59.54062	1084.25342	2222.47852	-267.01175	1232.99292	1900.50671	-209.05807	1084.82019	2026.13269	54.48173	597.73285	2243.88770	-249.86761	615.09662	2078.43237	69.25613	104.24679	2181.14233				
407	4.060	-102.32314	1745.37366	2279.18384	-167.51102	1772.63721	2147.28345							92.22465	1583.44153	2165.85278	65.10765	1770.59741	2152.99683	-84.55548	1517.21875	2167.71973				227.07602	1251.94824	2276.54956				125.47704	996.73273	2428.98584	-370.54218	996.19550	2067.12598	58.45871	1084.07739	2224.88086	-267.62726	1233.54395	1903.60815	-210.03120	1084.80676	2029.19360	54.53141	597.74341	2243.95898	-248.32652	614.20282	2079.92310	69.27341	104.23077	2181.12183	-93.81096	121.15214	2027.97461	
408	4.070	-104.38642	1744.86328	2282.58667	-170.13225	1772.45300	2151.40454							90.18066	1583.16016	2169.84277	62.90315	1770.52441	2157.12451	-86.26430	1517.53760	2171.13477				222.34251	1252.02368	2283.68701				119.36979	996.76056	2434.99878	-371.10590	996.34930	2070.35815	56.53347	1084.37427	2228.01636	-268.78885	1233.72156	1907.70691	-211.48950	1085.00293	2031.92419	54.77897	597.67102	2243.96411	-246.63208	613.55518	2082.05859	69.32141	104.14958	2181.04468	-99.25368	115.71459	2043.32629	
409	4.080	-106.79334	1745.24500	2285.74683	-172.13136	1772.58130	2154.25317							88.27478	1582.99146	2172.63965	60.67816	1771.60266	2160.85059	-87.91933	1517.36047	2174.28979				217.25298	1252.30969	2290.49805				112.94690	996.83838	2441.08838	-372.29617	996.66852	2073.61914	54.77080	1084.59460	2231.84302	-270.16116	1233.85376	1911.13257	-213.07695	1085.24475	2034.94727	54.97524	597.44434	2244.25562	-245.20407	612.79968	2084.44897	69.64740	104.19531	2180.59790	-104.93212	114.25719	2053.13794	
410	4.090	-108.97558	1744.84106	2288.66626	-174.28120	1772.67566	2157.38232							86.74072	1582.34912	2175.28613				-90.02599	1517.48450	2177.30273				211.80824	1252.65759	2297.51221				105.81007	997.10565	2447.67236	-372.66882	996.58252	2077.28613	53.55291	1084.43030	2234.18042	-271.57678	1234.06738	1914.55750	-214.73360	1085.12695	2037.78357	56.08101	596.70599	2243.87085	-244.49484	612.40906	2084.54370	69.66702	104.17548	2180.57397	-109.23904	111.01582	2066.39429	
411	4.100	-111.26771	1745.09167	2291.65430	-176.54408	1772.71558	2160.86792							84.76844	1583.21301	2178.56177	56.70173	1772.28516	2167.38599	-91.91936	1517.99353	2180.00073				206.56689	1252.84949	2303.79419				98.98243	997.54700	2453.12769	-373.09244	997.44244	2081.43579	51.60816	1084.69873	2237.58813	-272.72491	1234.23315	1917.66638	-216.07217	1084.71667	2040.71790	56.63116	596.62671	2243.64233	-243.19849	610.81592	2087.45435	69.71835	104.15558	2180.52930	-112.78527	110.30948	2073.88574	
412	4.110	-113.18474	1744.94226	2294.13965	-178.64568	1772.43823	2163.56299							83.19817	1582.97559	2181.08447	54.64673	1772.61035	2170.47241	-93.52091	1517.74255	2182.55615				201.38316	1252.92981	2309.42065				91.92363	997.53925	2458.12988	-373.75272	997.41479	2084.89038	49.82898	1084.66284	2240.80884	-274.52823	1234.30444	1920.61926	-217.90796	1084.24622	2043.46729	57.08467	596.59924	2244.38452	-242.28246	610.04968	2089.69482	69.78104	104.09974	2180.45703	-115.89404	108.54946	2088.20947	
413	4.120	-114.96700	1744.82104	2296.09424	-180.07523	1772.11841	2165.09399							81.32239	1582.95361	2183.99414	52.77988	1772.79456	2172.92188	-94.90939	1518.29358	2184.64868				196.66533	1253.14063	2315.39990				84.20252	998.52350	2463.53223	-374.53156	997.05334	2086.88452	48.73340	1084.57678	2242.94189	-276.23325	1234.37573	1923.57312	-219.60727	1083.93066	2046.10461	57.24448	596.44464	2244.54150	-241.06316	608.81860	2088.66284	69.82095	104.05077	2180.40332	-117.46144	106.15736	2098.37354	
414	4.130	-117.06142	1745.11951	2298.47046	-181.72069	1772.12268	2166.91895							79.51147	1582.78735	2186.67529	50.81689	1772.75769	2175.34644	-97.09002	1518.88489	2187.33813				191.90094	1252.93640	2320.54248				77.04187	999.14764	2467.38647	-375.28638	996.52911	2090.09106	46.34446	1085.26135	2246.60425	-277.49905	1234.10962	1926.08118	-220.96552	1083.48511	2048.98267	57.78574	596.18347	2244.97607	-240.42973	608.54822	2088.42285	70.20245	103.57651	2180.59570	-119.73103	106.38775	2105.04297	
415	4.140	-119.19708	1745.21484	2300.48267	-184.12677	1772.59644	2169.39551							77.48860	1582.91296	2189.57422	49.05513	1772.98645	2177.23950	-99.07945	1518.44263	2189.49731				186.75859	1253.16907	2325.42578				69.15909	1000.06329	2471.72754	-375.64215	996.37695	2092.31787	43.85197	1085.32031	2250.29810	-279.22632	1234.13501	1928.88721	-223.06790	1082.80603	2051.64502	58.18151	597.13202	2246.66577	-239.23335	606.63971	2089.85718	70.26163	103.55828	2180.54688	-120.60226	104.46157	2114.28320	
416	4.150	-121.27433	1745.17358	2301.96240	-186.10446	1772.83813	2171.19775							75.81367	1583.05725	2191.84106	46.97779	1773.07861	2179.27954	-101.22419	1518.71350	2191.28540				181.16922	1253.05164	2329.53394				61.22089	1000.75256	2475.49219	-375.89880	995.67352	2094.78320	41.87226	1085.32385	2253.15820	-280.73843	1234.11548	1930.92261	-224.79138	1082.56421	2054.42432	58.95649	597.07208	2247.66895	-239.60295	605.88892	2090.97900	70.40549	103.47774	2180.55566	-121.02303	103.84210	2122.32422	
417	4.160	-123.56932	1745.61096	2303.60815	-187.24548	1772.69604	2171.24951							73.80310	1583.25244	2194.22534	45.23814	1773.48108	2180.87305	-102.92745	1518.86267	2192.36621				176.59113	1253.08972	2333.51563				53.01901	1001.68329	2479.57178	-376.76590	995.78790	2097.15869	39.47190	1085.69958	2256.26929	-282.02594	1234.01746	1932.47632	-226.18405	1081.84314	2056.84082	58.65539	596.75623	2248.55029	-239.70154	604.74884	2092.39063	70.45270	103.45407	2180.51172	-121.78574	104.86525	2126.04102	
